<svg xmlns="http://www.w3.org/2000/svg" viewBox="0 0 940 258" width="940" height="258" fill="#141414">
<defs><marker id="a" viewBox="0 0 10 10" refX="9" refY="5" markerWidth="7" markerHeight="7" orient="auto-start-reverse"><path d="M0 0 L10 5 L0 10 z" fill="#141414"/></marker></defs>
<rect x="62.0" y="52.0" width="14.0" height="14.0" fill="#ffffff" stroke="#141414" stroke-width="1.1"/>
<rect x="76.0" y="52.0" width="14.0" height="14.0" fill="#ffffff" stroke="#141414" stroke-width="1.1"/>
<rect x="90.0" y="52.0" width="14.0" height="14.0" fill="#ffffff" stroke="#141414" stroke-width="1.1"/>
<rect x="76.0" y="73.0" width="14.0" height="14.0" fill="#ffffff" stroke="#141414" stroke-width="1.1"/>
<rect x="126.0" y="52.0" width="14.0" height="14.0" fill="#ffffff" stroke="#141414" stroke-width="1.1"/>
<rect x="140.0" y="52.0" width="14.0" height="14.0" fill="#ffffff" stroke="#141414" stroke-width="1.1"/>
<rect x="154.0" y="52.0" width="14.0" height="14.0" fill="#141414" stroke="#141414" stroke-width="1.1"/>
<rect x="140.0" y="73.0" width="14.0" height="14.0" fill="#141414" stroke="#141414" stroke-width="1.1"/>
<rect x="190.0" y="52.0" width="14.0" height="14.0" fill="#ffffff" stroke="#141414" stroke-width="1.1"/>
<rect x="204.0" y="52.0" width="14.0" height="14.0" fill="#141414" stroke="#141414" stroke-width="1.1"/>
<rect x="218.0" y="52.0" width="14.0" height="14.0" fill="#ffffff" stroke="#141414" stroke-width="1.1"/>
<rect x="204.0" y="73.0" width="14.0" height="14.0" fill="#141414" stroke="#141414" stroke-width="1.1"/>
<rect x="254.0" y="52.0" width="14.0" height="14.0" fill="#ffffff" stroke="#141414" stroke-width="1.1"/>
<rect x="268.0" y="52.0" width="14.0" height="14.0" fill="#141414" stroke="#141414" stroke-width="1.1"/>
<rect x="282.0" y="52.0" width="14.0" height="14.0" fill="#141414" stroke="#141414" stroke-width="1.1"/>
<rect x="268.0" y="73.0" width="14.0" height="14.0" fill="#141414" stroke="#141414" stroke-width="1.1"/>
<rect x="62.0" y="116.0" width="14.0" height="14.0" fill="#141414" stroke="#141414" stroke-width="1.1"/>
<rect x="76.0" y="116.0" width="14.0" height="14.0" fill="#ffffff" stroke="#141414" stroke-width="1.1"/>
<rect x="90.0" y="116.0" width="14.0" height="14.0" fill="#ffffff" stroke="#141414" stroke-width="1.1"/>
<rect x="76.0" y="137.0" width="14.0" height="14.0" fill="#141414" stroke="#141414" stroke-width="1.1"/>
<rect x="126.0" y="116.0" width="14.0" height="14.0" fill="#141414" stroke="#141414" stroke-width="1.1"/>
<rect x="140.0" y="116.0" width="14.0" height="14.0" fill="#ffffff" stroke="#141414" stroke-width="1.1"/>
<rect x="154.0" y="116.0" width="14.0" height="14.0" fill="#141414" stroke="#141414" stroke-width="1.1"/>
<rect x="140.0" y="137.0" width="14.0" height="14.0" fill="#ffffff" stroke="#141414" stroke-width="1.1"/>
<rect x="190.0" y="116.0" width="14.0" height="14.0" fill="#141414" stroke="#141414" stroke-width="1.1"/>
<rect x="204.0" y="116.0" width="14.0" height="14.0" fill="#141414" stroke="#141414" stroke-width="1.1"/>
<rect x="218.0" y="116.0" width="14.0" height="14.0" fill="#ffffff" stroke="#141414" stroke-width="1.1"/>
<rect x="204.0" y="137.0" width="14.0" height="14.0" fill="#ffffff" stroke="#141414" stroke-width="1.1"/>
<rect x="254.0" y="116.0" width="14.0" height="14.0" fill="#141414" stroke="#141414" stroke-width="1.1"/>
<rect x="268.0" y="116.0" width="14.0" height="14.0" fill="#141414" stroke="#141414" stroke-width="1.1"/>
<rect x="282.0" y="116.0" width="14.0" height="14.0" fill="#141414" stroke="#141414" stroke-width="1.1"/>
<rect x="268.0" y="137.0" width="14.0" height="14.0" fill="#ffffff" stroke="#141414" stroke-width="1.1"/>
<path d="M310 101 H344" fill="none" stroke="#141414" stroke-width="2" marker-end="url(#a)"/>
<rect x="573.00" y="14.00" width="3.40" height="3.40"/>
<rect x="569.60" y="17.40" width="10.20" height="3.40"/>
<rect x="566.20" y="20.80" width="6.80" height="3.40"/>
<rect x="579.80" y="20.80" width="3.40" height="3.40"/>
<rect x="562.80" y="24.20" width="6.80" height="3.40"/>
<rect x="573.00" y="24.20" width="13.60" height="3.40"/>
<rect x="559.40" y="27.60" width="6.80" height="3.40"/>
<rect x="573.00" y="27.60" width="3.40" height="3.40"/>
<rect x="586.60" y="27.60" width="3.40" height="3.40"/>
<rect x="556.00" y="31.00" width="6.80" height="3.40"/>
<rect x="566.20" y="31.00" width="13.60" height="3.40"/>
<rect x="583.20" y="31.00" width="10.20" height="3.40"/>
<rect x="552.60" y="34.40" width="6.80" height="3.40"/>
<rect x="566.20" y="34.40" width="3.40" height="3.40"/>
<rect x="583.20" y="34.40" width="3.40" height="3.40"/>
<rect x="593.40" y="34.40" width="3.40" height="3.40"/>
<rect x="549.20" y="37.80" width="6.80" height="3.40"/>
<rect x="559.40" y="37.80" width="13.60" height="3.40"/>
<rect x="579.80" y="37.80" width="20.40" height="3.40"/>
<rect x="545.80" y="41.20" width="6.80" height="3.40"/>
<rect x="559.40" y="41.20" width="3.40" height="3.40"/>
<rect x="573.00" y="41.20" width="10.20" height="3.40"/>
<rect x="600.20" y="41.20" width="3.40" height="3.40"/>
<rect x="542.40" y="44.60" width="6.80" height="3.40"/>
<rect x="552.60" y="44.60" width="13.60" height="3.40"/>
<rect x="569.60" y="44.60" width="6.80" height="3.40"/>
<rect x="583.20" y="44.60" width="3.40" height="3.40"/>
<rect x="596.80" y="44.60" width="10.20" height="3.40"/>
<rect x="539.00" y="48.00" width="6.80" height="3.40"/>
<rect x="552.60" y="48.00" width="3.40" height="3.40"/>
<rect x="569.60" y="48.00" width="3.40" height="3.40"/>
<rect x="576.40" y="48.00" width="13.60" height="3.40"/>
<rect x="593.40" y="48.00" width="6.80" height="3.40"/>
<rect x="607.00" y="48.00" width="3.40" height="3.40"/>
<rect x="535.60" y="51.40" width="6.80" height="3.40"/>
<rect x="545.80" y="51.40" width="13.60" height="3.40"/>
<rect x="566.20" y="51.40" width="6.80" height="3.40"/>
<rect x="576.40" y="51.40" width="3.40" height="3.40"/>
<rect x="593.40" y="51.40" width="3.40" height="3.40"/>
<rect x="600.20" y="51.40" width="13.60" height="3.40"/>
<rect x="532.20" y="54.80" width="6.80" height="3.40"/>
<rect x="545.80" y="54.80" width="3.40" height="3.40"/>
<rect x="559.40" y="54.80" width="10.20" height="3.40"/>
<rect x="576.40" y="54.80" width="6.80" height="3.40"/>
<rect x="590.00" y="54.80" width="6.80" height="3.40"/>
<rect x="600.20" y="54.80" width="3.40" height="3.40"/>
<rect x="613.80" y="54.80" width="3.40" height="3.40"/>
<rect x="528.80" y="58.20" width="6.80" height="3.40"/>
<rect x="539.00" y="58.20" width="13.60" height="3.40"/>
<rect x="556.00" y="58.20" width="6.80" height="3.40"/>
<rect x="569.60" y="58.20" width="10.20" height="3.40"/>
<rect x="583.20" y="58.20" width="10.20" height="3.40"/>
<rect x="600.20" y="58.20" width="6.80" height="3.40"/>
<rect x="610.40" y="58.20" width="10.20" height="3.40"/>
<rect x="525.40" y="61.60" width="6.80" height="3.40"/>
<rect x="539.00" y="61.60" width="3.40" height="3.40"/>
<rect x="556.00" y="61.60" width="3.40" height="3.40"/>
<rect x="562.80" y="61.60" width="10.20" height="3.40"/>
<rect x="583.20" y="61.60" width="3.40" height="3.40"/>
<rect x="593.40" y="61.60" width="10.20" height="3.40"/>
<rect x="610.40" y="61.60" width="3.40" height="3.40"/>
<rect x="620.60" y="61.60" width="3.40" height="3.40"/>
<rect x="522.00" y="65.00" width="6.80" height="3.40"/>
<rect x="532.20" y="65.00" width="13.60" height="3.40"/>
<rect x="552.60" y="65.00" width="6.80" height="3.40"/>
<rect x="562.80" y="65.00" width="3.40" height="3.40"/>
<rect x="573.00" y="65.00" width="3.40" height="3.40"/>
<rect x="579.80" y="65.00" width="17.00" height="3.40"/>
<rect x="603.60" y="65.00" width="23.80" height="3.40"/>
<rect x="518.60" y="68.40" width="6.80" height="3.40"/>
<rect x="532.20" y="68.40" width="3.40" height="3.40"/>
<rect x="545.80" y="68.40" width="10.20" height="3.40"/>
<rect x="562.80" y="68.40" width="13.60" height="3.40"/>
<rect x="579.80" y="68.40" width="3.40" height="3.40"/>
<rect x="596.80" y="68.40" width="10.20" height="3.40"/>
<rect x="627.40" y="68.40" width="3.40" height="3.40"/>
<rect x="515.20" y="71.80" width="6.80" height="3.40"/>
<rect x="525.40" y="71.80" width="13.60" height="3.40"/>
<rect x="542.40" y="71.80" width="6.80" height="3.40"/>
<rect x="556.00" y="71.80" width="10.20" height="3.40"/>
<rect x="579.80" y="71.80" width="6.80" height="3.40"/>
<rect x="593.40" y="71.80" width="6.80" height="3.40"/>
<rect x="607.00" y="71.80" width="3.40" height="3.40"/>
<rect x="624.00" y="71.80" width="10.20" height="3.40"/>
<rect x="511.80" y="75.20" width="6.80" height="3.40"/>
<rect x="525.40" y="75.20" width="3.40" height="3.40"/>
<rect x="542.40" y="75.20" width="3.40" height="3.40"/>
<rect x="549.20" y="75.20" width="10.20" height="3.40"/>
<rect x="566.20" y="75.20" width="3.40" height="3.40"/>
<rect x="576.40" y="75.20" width="6.80" height="3.40"/>
<rect x="586.60" y="75.20" width="10.20" height="3.40"/>
<rect x="600.20" y="75.20" width="13.60" height="3.40"/>
<rect x="620.60" y="75.20" width="6.80" height="3.40"/>
<rect x="634.20" y="75.20" width="3.40" height="3.40"/>
<rect x="508.40" y="78.60" width="6.80" height="3.40"/>
<rect x="518.60" y="78.60" width="13.60" height="3.40"/>
<rect x="539.00" y="78.60" width="6.80" height="3.40"/>
<rect x="549.20" y="78.60" width="3.40" height="3.40"/>
<rect x="559.40" y="78.60" width="20.40" height="3.40"/>
<rect x="586.60" y="78.60" width="3.40" height="3.40"/>
<rect x="600.20" y="78.60" width="3.40" height="3.40"/>
<rect x="613.80" y="78.60" width="10.20" height="3.40"/>
<rect x="627.40" y="78.60" width="13.60" height="3.40"/>
<rect x="505.00" y="82.00" width="6.80" height="3.40"/>
<rect x="518.60" y="82.00" width="3.40" height="3.40"/>
<rect x="532.20" y="82.00" width="10.20" height="3.40"/>
<rect x="549.20" y="82.00" width="13.60" height="3.40"/>
<rect x="579.80" y="82.00" width="13.60" height="3.40"/>
<rect x="596.80" y="82.00" width="10.20" height="3.40"/>
<rect x="610.40" y="82.00" width="6.80" height="3.40"/>
<rect x="627.40" y="82.00" width="3.40" height="3.40"/>
<rect x="641.00" y="82.00" width="3.40" height="3.40"/>
<rect x="501.60" y="85.40" width="6.80" height="3.40"/>
<rect x="511.80" y="85.40" width="13.60" height="3.40"/>
<rect x="528.80" y="85.40" width="6.80" height="3.40"/>
<rect x="542.40" y="85.40" width="10.20" height="3.40"/>
<rect x="562.80" y="85.40" width="3.40" height="3.40"/>
<rect x="576.40" y="85.40" width="6.80" height="3.40"/>
<rect x="596.80" y="85.40" width="3.40" height="3.40"/>
<rect x="610.40" y="85.40" width="3.40" height="3.40"/>
<rect x="617.20" y="85.40" width="3.40" height="3.40"/>
<rect x="624.00" y="85.40" width="10.20" height="3.40"/>
<rect x="637.60" y="85.40" width="10.20" height="3.40"/>
<rect x="498.20" y="88.80" width="6.80" height="3.40"/>
<rect x="511.80" y="88.80" width="3.40" height="3.40"/>
<rect x="528.80" y="88.80" width="3.40" height="3.40"/>
<rect x="535.60" y="88.80" width="10.20" height="3.40"/>
<rect x="552.60" y="88.80" width="3.40" height="3.40"/>
<rect x="559.40" y="88.80" width="10.20" height="3.40"/>
<rect x="573.00" y="88.80" width="6.80" height="3.40"/>
<rect x="583.20" y="88.80" width="3.40" height="3.40"/>
<rect x="593.40" y="88.80" width="10.20" height="3.40"/>
<rect x="607.00" y="88.80" width="6.80" height="3.40"/>
<rect x="617.20" y="88.80" width="3.40" height="3.40"/>
<rect x="624.00" y="88.80" width="3.40" height="3.40"/>
<rect x="637.60" y="88.80" width="3.40" height="3.40"/>
<rect x="647.80" y="88.80" width="3.40" height="3.40"/>
<rect x="494.80" y="92.20" width="6.80" height="3.40"/>
<rect x="505.00" y="92.20" width="13.60" height="3.40"/>
<rect x="525.40" y="92.20" width="6.80" height="3.40"/>
<rect x="535.60" y="92.20" width="3.40" height="3.40"/>
<rect x="545.80" y="92.20" width="10.20" height="3.40"/>
<rect x="559.40" y="92.20" width="3.40" height="3.40"/>
<rect x="573.00" y="92.20" width="3.40" height="3.40"/>
<rect x="583.20" y="92.20" width="13.60" height="3.40"/>
<rect x="607.00" y="92.20" width="3.40" height="3.40"/>
<rect x="617.20" y="92.20" width="3.40" height="3.40"/>
<rect x="624.00" y="92.20" width="6.80" height="3.40"/>
<rect x="634.20" y="92.20" width="20.40" height="3.40"/>
<rect x="491.40" y="95.60" width="6.80" height="3.40"/>
<rect x="505.00" y="95.60" width="3.40" height="3.40"/>
<rect x="518.60" y="95.60" width="10.20" height="3.40"/>
<rect x="535.60" y="95.60" width="13.60" height="3.40"/>
<rect x="559.40" y="95.60" width="6.80" height="3.40"/>
<rect x="569.60" y="95.60" width="17.00" height="3.40"/>
<rect x="596.80" y="95.60" width="3.40" height="3.40"/>
<rect x="603.60" y="95.60" width="17.00" height="3.40"/>
<rect x="624.00" y="95.60" width="3.40" height="3.40"/>
<rect x="634.20" y="95.60" width="3.40" height="3.40"/>
<rect x="654.60" y="95.60" width="3.40" height="3.40"/>
<rect x="488.00" y="99.00" width="6.80" height="3.40"/>
<rect x="498.20" y="99.00" width="13.60" height="3.40"/>
<rect x="515.20" y="99.00" width="6.80" height="3.40"/>
<rect x="528.80" y="99.00" width="10.20" height="3.40"/>
<rect x="549.20" y="99.00" width="3.40" height="3.40"/>
<rect x="556.00" y="99.00" width="6.80" height="3.40"/>
<rect x="569.60" y="99.00" width="3.40" height="3.40"/>
<rect x="586.60" y="99.00" width="3.40" height="3.40"/>
<rect x="593.40" y="99.00" width="6.80" height="3.40"/>
<rect x="603.60" y="99.00" width="3.40" height="3.40"/>
<rect x="624.00" y="99.00" width="17.00" height="3.40"/>
<rect x="651.20" y="99.00" width="10.20" height="3.40"/>
<rect x="484.60" y="102.40" width="6.80" height="3.40"/>
<rect x="498.20" y="102.40" width="3.40" height="3.40"/>
<rect x="515.20" y="102.40" width="3.40" height="3.40"/>
<rect x="522.00" y="102.40" width="10.20" height="3.40"/>
<rect x="539.00" y="102.40" width="3.40" height="3.40"/>
<rect x="545.80" y="102.40" width="6.80" height="3.40"/>
<rect x="556.00" y="102.40" width="3.40" height="3.40"/>
<rect x="562.80" y="102.40" width="13.60" height="3.40"/>
<rect x="583.20" y="102.40" width="6.80" height="3.40"/>
<rect x="593.40" y="102.40" width="3.40" height="3.40"/>
<rect x="603.60" y="102.40" width="6.80" height="3.40"/>
<rect x="620.60" y="102.40" width="6.80" height="3.40"/>
<rect x="641.00" y="102.40" width="3.40" height="3.40"/>
<rect x="647.80" y="102.40" width="6.80" height="3.40"/>
<rect x="661.40" y="102.40" width="3.40" height="3.40"/>
<rect x="481.20" y="105.80" width="6.80" height="3.40"/>
<rect x="491.40" y="105.80" width="13.60" height="3.40"/>
<rect x="511.80" y="105.80" width="6.80" height="3.40"/>
<rect x="522.00" y="105.80" width="3.40" height="3.40"/>
<rect x="532.20" y="105.80" width="10.20" height="3.40"/>
<rect x="545.80" y="105.80" width="3.40" height="3.40"/>
<rect x="556.00" y="105.80" width="3.40" height="3.40"/>
<rect x="562.80" y="105.80" width="3.40" height="3.40"/>
<rect x="576.40" y="105.80" width="10.20" height="3.40"/>
<rect x="593.40" y="105.80" width="13.60" height="3.40"/>
<rect x="610.40" y="105.80" width="3.40" height="3.40"/>
<rect x="617.20" y="105.80" width="6.80" height="3.40"/>
<rect x="627.40" y="105.80" width="3.40" height="3.40"/>
<rect x="637.60" y="105.80" width="6.80" height="3.40"/>
<rect x="647.80" y="105.80" width="3.40" height="3.40"/>
<rect x="654.60" y="105.80" width="13.60" height="3.40"/>
<rect x="477.80" y="109.20" width="6.80" height="3.40"/>
<rect x="491.40" y="109.20" width="3.40" height="3.40"/>
<rect x="505.00" y="109.20" width="10.20" height="3.40"/>
<rect x="522.00" y="109.20" width="13.60" height="3.40"/>
<rect x="545.80" y="109.20" width="13.60" height="3.40"/>
<rect x="562.80" y="109.20" width="6.80" height="3.40"/>
<rect x="573.00" y="109.20" width="6.80" height="3.40"/>
<rect x="586.60" y="109.20" width="10.20" height="3.40"/>
<rect x="610.40" y="109.20" width="3.40" height="3.40"/>
<rect x="617.20" y="109.20" width="3.40" height="3.40"/>
<rect x="627.40" y="109.20" width="13.60" height="3.40"/>
<rect x="647.80" y="109.20" width="3.40" height="3.40"/>
<rect x="654.60" y="109.20" width="3.40" height="3.40"/>
<rect x="668.20" y="109.20" width="3.40" height="3.40"/>
<rect x="474.40" y="112.60" width="6.80" height="3.40"/>
<rect x="484.60" y="112.60" width="13.60" height="3.40"/>
<rect x="501.60" y="112.60" width="6.80" height="3.40"/>
<rect x="515.20" y="112.60" width="10.20" height="3.40"/>
<rect x="535.60" y="112.60" width="3.40" height="3.40"/>
<rect x="542.40" y="112.60" width="6.80" height="3.40"/>
<rect x="562.80" y="112.60" width="3.40" height="3.40"/>
<rect x="573.00" y="112.60" width="3.40" height="3.40"/>
<rect x="579.80" y="112.60" width="10.20" height="3.40"/>
<rect x="596.80" y="112.60" width="3.40" height="3.40"/>
<rect x="607.00" y="112.60" width="6.80" height="3.40"/>
<rect x="617.20" y="112.60" width="13.60" height="3.40"/>
<rect x="641.00" y="112.60" width="10.20" height="3.40"/>
<rect x="654.60" y="112.60" width="6.80" height="3.40"/>
<rect x="664.80" y="112.60" width="10.20" height="3.40"/>
<rect x="471.00" y="116.00" width="6.80" height="3.40"/>
<rect x="484.60" y="116.00" width="3.40" height="3.40"/>
<rect x="501.60" y="116.00" width="3.40" height="3.40"/>
<rect x="508.40" y="116.00" width="10.20" height="3.40"/>
<rect x="525.40" y="116.00" width="3.40" height="3.40"/>
<rect x="532.20" y="116.00" width="6.80" height="3.40"/>
<rect x="542.40" y="116.00" width="3.40" height="3.40"/>
<rect x="549.20" y="116.00" width="3.40" height="3.40"/>
<rect x="559.40" y="116.00" width="17.00" height="3.40"/>
<rect x="579.80" y="116.00" width="3.40" height="3.40"/>
<rect x="590.00" y="116.00" width="20.40" height="3.40"/>
<rect x="617.20" y="116.00" width="3.40" height="3.40"/>
<rect x="630.80" y="116.00" width="3.40" height="3.40"/>
<rect x="637.60" y="116.00" width="6.80" height="3.40"/>
<rect x="654.60" y="116.00" width="3.40" height="3.40"/>
<rect x="664.80" y="116.00" width="3.40" height="3.40"/>
<rect x="675.00" y="116.00" width="3.40" height="3.40"/>
<rect x="467.60" y="119.40" width="6.80" height="3.40"/>
<rect x="477.80" y="119.40" width="13.60" height="3.40"/>
<rect x="498.20" y="119.40" width="6.80" height="3.40"/>
<rect x="508.40" y="119.40" width="3.40" height="3.40"/>
<rect x="518.60" y="119.40" width="10.20" height="3.40"/>
<rect x="532.20" y="119.40" width="3.40" height="3.40"/>
<rect x="542.40" y="119.40" width="3.40" height="3.40"/>
<rect x="549.20" y="119.40" width="13.60" height="3.40"/>
<rect x="579.80" y="119.40" width="13.60" height="3.40"/>
<rect x="610.40" y="119.40" width="13.60" height="3.40"/>
<rect x="627.40" y="119.40" width="6.80" height="3.40"/>
<rect x="637.60" y="119.40" width="3.40" height="3.40"/>
<rect x="644.40" y="119.40" width="3.40" height="3.40"/>
<rect x="651.20" y="119.40" width="30.60" height="3.40"/>
<rect x="464.20" y="122.80" width="6.80" height="3.40"/>
<rect x="477.80" y="122.80" width="3.40" height="3.40"/>
<rect x="491.40" y="122.80" width="10.20" height="3.40"/>
<rect x="508.40" y="122.80" width="13.60" height="3.40"/>
<rect x="532.20" y="122.80" width="13.60" height="3.40"/>
<rect x="549.20" y="122.80" width="3.40" height="3.40"/>
<rect x="562.80" y="122.80" width="3.40" height="3.40"/>
<rect x="576.40" y="122.80" width="6.80" height="3.40"/>
<rect x="593.40" y="122.80" width="3.40" height="3.40"/>
<rect x="607.00" y="122.80" width="6.80" height="3.40"/>
<rect x="627.40" y="122.80" width="3.40" height="3.40"/>
<rect x="637.60" y="122.80" width="3.40" height="3.40"/>
<rect x="644.40" y="122.80" width="3.40" height="3.40"/>
<rect x="651.20" y="122.80" width="3.40" height="3.40"/>
<rect x="681.80" y="122.80" width="3.40" height="3.40"/>
<rect x="460.80" y="126.20" width="6.80" height="3.40"/>
<rect x="471.00" y="126.20" width="13.60" height="3.40"/>
<rect x="488.00" y="126.20" width="6.80" height="3.40"/>
<rect x="501.60" y="126.20" width="10.20" height="3.40"/>
<rect x="522.00" y="126.20" width="3.40" height="3.40"/>
<rect x="528.80" y="126.20" width="6.80" height="3.40"/>
<rect x="549.20" y="126.20" width="6.80" height="3.40"/>
<rect x="559.40" y="126.20" width="10.20" height="3.40"/>
<rect x="573.00" y="126.20" width="6.80" height="3.40"/>
<rect x="583.20" y="126.20" width="3.40" height="3.40"/>
<rect x="590.00" y="126.20" width="10.20" height="3.40"/>
<rect x="603.60" y="126.20" width="6.80" height="3.40"/>
<rect x="613.80" y="126.20" width="3.40" height="3.40"/>
<rect x="624.00" y="126.20" width="17.00" height="3.40"/>
<rect x="644.40" y="126.20" width="3.40" height="3.40"/>
<rect x="651.20" y="126.20" width="6.80" height="3.40"/>
<rect x="678.40" y="126.20" width="10.20" height="3.40"/>
<rect x="457.40" y="129.60" width="6.80" height="3.40"/>
<rect x="471.00" y="129.60" width="3.40" height="3.40"/>
<rect x="488.00" y="129.60" width="3.40" height="3.40"/>
<rect x="494.80" y="129.60" width="10.20" height="3.40"/>
<rect x="511.80" y="129.60" width="3.40" height="3.40"/>
<rect x="518.60" y="129.60" width="6.80" height="3.40"/>
<rect x="528.80" y="129.60" width="3.40" height="3.40"/>
<rect x="535.60" y="129.60" width="3.40" height="3.40"/>
<rect x="545.80" y="129.60" width="6.80" height="3.40"/>
<rect x="559.40" y="129.60" width="3.40" height="3.40"/>
<rect x="573.00" y="129.60" width="3.40" height="3.40"/>
<rect x="583.20" y="129.60" width="3.40" height="3.40"/>
<rect x="590.00" y="129.60" width="3.40" height="3.40"/>
<rect x="603.60" y="129.60" width="3.40" height="3.40"/>
<rect x="613.80" y="129.60" width="13.60" height="3.40"/>
<rect x="644.40" y="129.60" width="3.40" height="3.40"/>
<rect x="651.20" y="129.60" width="3.40" height="3.40"/>
<rect x="658.00" y="129.60" width="3.40" height="3.40"/>
<rect x="675.00" y="129.60" width="6.80" height="3.40"/>
<rect x="688.60" y="129.60" width="3.40" height="3.40"/>
<rect x="454.00" y="133.00" width="6.80" height="3.40"/>
<rect x="464.20" y="133.00" width="13.60" height="3.40"/>
<rect x="484.60" y="133.00" width="6.80" height="3.40"/>
<rect x="494.80" y="133.00" width="3.40" height="3.40"/>
<rect x="505.00" y="133.00" width="10.20" height="3.40"/>
<rect x="518.60" y="133.00" width="3.40" height="3.40"/>
<rect x="528.80" y="133.00" width="3.40" height="3.40"/>
<rect x="535.60" y="133.00" width="13.60" height="3.40"/>
<rect x="552.60" y="133.00" width="13.60" height="3.40"/>
<rect x="569.60" y="133.00" width="17.00" height="3.40"/>
<rect x="590.00" y="133.00" width="6.80" height="3.40"/>
<rect x="600.20" y="133.00" width="17.00" height="3.40"/>
<rect x="627.40" y="133.00" width="3.40" height="3.40"/>
<rect x="641.00" y="133.00" width="6.80" height="3.40"/>
<rect x="651.20" y="133.00" width="3.40" height="3.40"/>
<rect x="658.00" y="133.00" width="6.80" height="3.40"/>
<rect x="671.60" y="133.00" width="6.80" height="3.40"/>
<rect x="681.80" y="133.00" width="13.60" height="3.40"/>
<rect x="450.60" y="136.40" width="6.80" height="3.40"/>
<rect x="464.20" y="136.40" width="3.40" height="3.40"/>
<rect x="477.80" y="136.40" width="10.20" height="3.40"/>
<rect x="494.80" y="136.40" width="13.60" height="3.40"/>
<rect x="518.60" y="136.40" width="13.60" height="3.40"/>
<rect x="535.60" y="136.40" width="3.40" height="3.40"/>
<rect x="552.60" y="136.40" width="3.40" height="3.40"/>
<rect x="569.60" y="136.40" width="3.40" height="3.40"/>
<rect x="590.00" y="136.40" width="3.40" height="3.40"/>
<rect x="600.20" y="136.40" width="3.40" height="3.40"/>
<rect x="617.20" y="136.40" width="3.40" height="3.40"/>
<rect x="624.00" y="136.40" width="10.20" height="3.40"/>
<rect x="637.60" y="136.40" width="6.80" height="3.40"/>
<rect x="651.20" y="136.40" width="3.40" height="3.40"/>
<rect x="658.00" y="136.40" width="3.40" height="3.40"/>
<rect x="664.80" y="136.40" width="10.20" height="3.40"/>
<rect x="681.80" y="136.40" width="3.40" height="3.40"/>
<rect x="695.40" y="136.40" width="3.40" height="3.40"/>
<rect x="447.20" y="139.80" width="6.80" height="3.40"/>
<rect x="457.40" y="139.80" width="13.60" height="3.40"/>
<rect x="474.40" y="139.80" width="6.80" height="3.40"/>
<rect x="488.00" y="139.80" width="10.20" height="3.40"/>
<rect x="508.40" y="139.80" width="3.40" height="3.40"/>
<rect x="515.20" y="139.80" width="6.80" height="3.40"/>
<rect x="535.60" y="139.80" width="6.80" height="3.40"/>
<rect x="549.20" y="139.80" width="10.20" height="3.40"/>
<rect x="566.20" y="139.80" width="10.20" height="3.40"/>
<rect x="586.60" y="139.80" width="20.40" height="3.40"/>
<rect x="613.80" y="139.80" width="6.80" height="3.40"/>
<rect x="624.00" y="139.80" width="3.40" height="3.40"/>
<rect x="637.60" y="139.80" width="3.40" height="3.40"/>
<rect x="644.40" y="139.80" width="10.20" height="3.40"/>
<rect x="658.00" y="139.80" width="3.40" height="3.40"/>
<rect x="664.80" y="139.80" width="3.40" height="3.40"/>
<rect x="675.00" y="139.80" width="13.60" height="3.40"/>
<rect x="692.00" y="139.80" width="10.20" height="3.40"/>
<rect x="443.80" y="143.20" width="6.80" height="3.40"/>
<rect x="457.40" y="143.20" width="3.40" height="3.40"/>
<rect x="474.40" y="143.20" width="3.40" height="3.40"/>
<rect x="481.20" y="143.20" width="10.20" height="3.40"/>
<rect x="498.20" y="143.20" width="3.40" height="3.40"/>
<rect x="505.00" y="143.20" width="6.80" height="3.40"/>
<rect x="515.20" y="143.20" width="3.40" height="3.40"/>
<rect x="522.00" y="143.20" width="3.40" height="3.40"/>
<rect x="532.20" y="143.20" width="6.80" height="3.40"/>
<rect x="542.40" y="143.20" width="10.20" height="3.40"/>
<rect x="559.40" y="143.20" width="10.20" height="3.40"/>
<rect x="576.40" y="143.20" width="3.40" height="3.40"/>
<rect x="583.20" y="143.20" width="6.80" height="3.40"/>
<rect x="607.00" y="143.20" width="10.20" height="3.40"/>
<rect x="624.00" y="143.20" width="6.80" height="3.40"/>
<rect x="634.20" y="143.20" width="6.80" height="3.40"/>
<rect x="644.40" y="143.20" width="3.40" height="3.40"/>
<rect x="658.00" y="143.20" width="3.40" height="3.40"/>
<rect x="664.80" y="143.20" width="13.60" height="3.40"/>
<rect x="692.00" y="143.20" width="3.40" height="3.40"/>
<rect x="702.20" y="143.20" width="3.40" height="3.40"/>
<rect x="440.40" y="146.60" width="6.80" height="3.40"/>
<rect x="450.60" y="146.60" width="13.60" height="3.40"/>
<rect x="471.00" y="146.60" width="6.80" height="3.40"/>
<rect x="481.20" y="146.60" width="3.40" height="3.40"/>
<rect x="491.40" y="146.60" width="10.20" height="3.40"/>
<rect x="505.00" y="146.60" width="3.40" height="3.40"/>
<rect x="515.20" y="146.60" width="3.40" height="3.40"/>
<rect x="522.00" y="146.60" width="13.60" height="3.40"/>
<rect x="542.40" y="146.60" width="3.40" height="3.40"/>
<rect x="552.60" y="146.60" width="10.20" height="3.40"/>
<rect x="569.60" y="146.60" width="10.20" height="3.40"/>
<rect x="583.20" y="146.60" width="3.40" height="3.40"/>
<rect x="590.00" y="146.60" width="3.40" height="3.40"/>
<rect x="603.60" y="146.60" width="6.80" height="3.40"/>
<rect x="617.20" y="146.60" width="10.20" height="3.40"/>
<rect x="634.20" y="146.60" width="3.40" height="3.40"/>
<rect x="644.40" y="146.60" width="6.80" height="3.40"/>
<rect x="654.60" y="146.60" width="6.80" height="3.40"/>
<rect x="664.80" y="146.60" width="3.40" height="3.40"/>
<rect x="678.40" y="146.60" width="3.40" height="3.40"/>
<rect x="688.60" y="146.60" width="20.40" height="3.40"/>
<rect x="437.00" y="150.00" width="6.80" height="3.40"/>
<rect x="450.60" y="150.00" width="3.40" height="3.40"/>
<rect x="464.20" y="150.00" width="10.20" height="3.40"/>
<rect x="481.20" y="150.00" width="13.60" height="3.40"/>
<rect x="505.00" y="150.00" width="13.60" height="3.40"/>
<rect x="522.00" y="150.00" width="3.40" height="3.40"/>
<rect x="535.60" y="150.00" width="20.40" height="3.40"/>
<rect x="562.80" y="150.00" width="10.20" height="3.40"/>
<rect x="583.20" y="150.00" width="3.40" height="3.40"/>
<rect x="590.00" y="150.00" width="6.80" height="3.40"/>
<rect x="600.20" y="150.00" width="6.80" height="3.40"/>
<rect x="610.40" y="150.00" width="10.20" height="3.40"/>
<rect x="627.40" y="150.00" width="20.40" height="3.40"/>
<rect x="654.60" y="150.00" width="3.40" height="3.40"/>
<rect x="664.80" y="150.00" width="6.80" height="3.40"/>
<rect x="675.00" y="150.00" width="17.00" height="3.40"/>
<rect x="709.00" y="150.00" width="3.40" height="3.40"/>
<rect x="433.60" y="153.40" width="6.80" height="3.40"/>
<rect x="443.80" y="153.40" width="13.60" height="3.40"/>
<rect x="460.80" y="153.40" width="6.80" height="3.40"/>
<rect x="474.40" y="153.40" width="10.20" height="3.40"/>
<rect x="494.80" y="153.40" width="3.40" height="3.40"/>
<rect x="501.60" y="153.40" width="6.80" height="3.40"/>
<rect x="522.00" y="153.40" width="6.80" height="3.40"/>
<rect x="532.20" y="153.40" width="6.80" height="3.40"/>
<rect x="556.00" y="153.40" width="10.20" height="3.40"/>
<rect x="573.00" y="153.40" width="3.40" height="3.40"/>
<rect x="579.80" y="153.40" width="6.80" height="3.40"/>
<rect x="590.00" y="153.40" width="3.40" height="3.40"/>
<rect x="600.20" y="153.40" width="3.40" height="3.40"/>
<rect x="610.40" y="153.40" width="3.40" height="3.40"/>
<rect x="620.60" y="153.40" width="10.20" height="3.40"/>
<rect x="647.80" y="153.40" width="20.40" height="3.40"/>
<rect x="675.00" y="153.40" width="3.40" height="3.40"/>
<rect x="692.00" y="153.40" width="3.40" height="3.40"/>
<rect x="705.60" y="153.40" width="10.20" height="3.40"/>
<rect x="430.20" y="156.80" width="6.80" height="3.40"/>
<rect x="443.80" y="156.80" width="3.40" height="3.40"/>
<rect x="460.80" y="156.80" width="3.40" height="3.40"/>
<rect x="467.60" y="156.80" width="10.20" height="3.40"/>
<rect x="484.60" y="156.80" width="3.40" height="3.40"/>
<rect x="491.40" y="156.80" width="6.80" height="3.40"/>
<rect x="501.60" y="156.80" width="3.40" height="3.40"/>
<rect x="508.40" y="156.80" width="3.40" height="3.40"/>
<rect x="518.60" y="156.80" width="6.80" height="3.40"/>
<rect x="532.20" y="156.80" width="3.40" height="3.40"/>
<rect x="539.00" y="156.80" width="3.40" height="3.40"/>
<rect x="552.60" y="156.80" width="6.80" height="3.40"/>
<rect x="566.20" y="156.80" width="10.20" height="3.40"/>
<rect x="579.80" y="156.80" width="3.40" height="3.40"/>
<rect x="590.00" y="156.80" width="34.00" height="3.40"/>
<rect x="630.80" y="156.80" width="3.40" height="3.40"/>
<rect x="644.40" y="156.80" width="6.80" height="3.40"/>
<rect x="668.20" y="156.80" width="13.60" height="3.40"/>
<rect x="688.60" y="156.80" width="10.20" height="3.40"/>
<rect x="702.20" y="156.80" width="6.80" height="3.40"/>
<rect x="715.80" y="156.80" width="3.40" height="3.40"/>
<rect x="426.80" y="160.20" width="6.80" height="3.40"/>
<rect x="437.00" y="160.20" width="13.60" height="3.40"/>
<rect x="457.40" y="160.20" width="6.80" height="3.40"/>
<rect x="467.60" y="160.20" width="3.40" height="3.40"/>
<rect x="477.80" y="160.20" width="10.20" height="3.40"/>
<rect x="491.40" y="160.20" width="3.40" height="3.40"/>
<rect x="501.60" y="160.20" width="3.40" height="3.40"/>
<rect x="508.40" y="160.20" width="13.60" height="3.40"/>
<rect x="525.40" y="160.20" width="10.20" height="3.40"/>
<rect x="539.00" y="160.20" width="6.80" height="3.40"/>
<rect x="549.20" y="160.20" width="6.80" height="3.40"/>
<rect x="559.40" y="160.20" width="10.20" height="3.40"/>
<rect x="579.80" y="160.20" width="13.60" height="3.40"/>
<rect x="624.00" y="160.20" width="13.60" height="3.40"/>
<rect x="641.00" y="160.20" width="6.80" height="3.40"/>
<rect x="651.20" y="160.20" width="3.40" height="3.40"/>
<rect x="664.80" y="160.20" width="6.80" height="3.40"/>
<rect x="681.80" y="160.20" width="10.20" height="3.40"/>
<rect x="702.20" y="160.20" width="3.40" height="3.40"/>
<rect x="709.00" y="160.20" width="13.60" height="3.40"/>
<rect x="423.40" y="163.60" width="6.80" height="3.40"/>
<rect x="437.00" y="163.60" width="3.40" height="3.40"/>
<rect x="450.60" y="163.60" width="10.20" height="3.40"/>
<rect x="467.60" y="163.60" width="13.60" height="3.40"/>
<rect x="491.40" y="163.60" width="13.60" height="3.40"/>
<rect x="508.40" y="163.60" width="3.40" height="3.40"/>
<rect x="525.40" y="163.60" width="3.40" height="3.40"/>
<rect x="539.00" y="163.60" width="3.40" height="3.40"/>
<rect x="549.20" y="163.60" width="3.40" height="3.40"/>
<rect x="559.40" y="163.60" width="3.40" height="3.40"/>
<rect x="569.60" y="163.60" width="3.40" height="3.40"/>
<rect x="576.40" y="163.60" width="6.80" height="3.40"/>
<rect x="593.40" y="163.60" width="3.40" height="3.40"/>
<rect x="620.60" y="163.60" width="6.80" height="3.40"/>
<rect x="641.00" y="163.60" width="3.40" height="3.40"/>
<rect x="651.20" y="163.60" width="6.80" height="3.40"/>
<rect x="661.40" y="163.60" width="6.80" height="3.40"/>
<rect x="671.60" y="163.60" width="3.40" height="3.40"/>
<rect x="678.40" y="163.60" width="6.80" height="3.40"/>
<rect x="692.00" y="163.60" width="3.40" height="3.40"/>
<rect x="698.80" y="163.60" width="6.80" height="3.40"/>
<rect x="709.00" y="163.60" width="3.40" height="3.40"/>
<rect x="722.60" y="163.60" width="3.40" height="3.40"/>
<rect x="420.00" y="167.00" width="6.80" height="3.40"/>
<rect x="430.20" y="167.00" width="13.60" height="3.40"/>
<rect x="447.20" y="167.00" width="6.80" height="3.40"/>
<rect x="460.80" y="167.00" width="10.20" height="3.40"/>
<rect x="481.20" y="167.00" width="3.40" height="3.40"/>
<rect x="488.00" y="167.00" width="6.80" height="3.40"/>
<rect x="508.40" y="167.00" width="6.80" height="3.40"/>
<rect x="522.00" y="167.00" width="10.20" height="3.40"/>
<rect x="535.60" y="167.00" width="37.40" height="3.40"/>
<rect x="576.40" y="167.00" width="3.40" height="3.40"/>
<rect x="583.20" y="167.00" width="3.40" height="3.40"/>
<rect x="590.00" y="167.00" width="10.20" height="3.40"/>
<rect x="617.20" y="167.00" width="6.80" height="3.40"/>
<rect x="627.40" y="167.00" width="3.40" height="3.40"/>
<rect x="637.60" y="167.00" width="17.00" height="3.40"/>
<rect x="661.40" y="167.00" width="3.40" height="3.40"/>
<rect x="671.60" y="167.00" width="3.40" height="3.40"/>
<rect x="678.40" y="167.00" width="3.40" height="3.40"/>
<rect x="685.20" y="167.00" width="10.20" height="3.40"/>
<rect x="698.80" y="167.00" width="3.40" height="3.40"/>
<rect x="709.00" y="167.00" width="6.80" height="3.40"/>
<rect x="719.20" y="167.00" width="10.20" height="3.40"/>
<rect x="416.60" y="170.40" width="6.80" height="3.40"/>
<rect x="430.20" y="170.40" width="3.40" height="3.40"/>
<rect x="447.20" y="170.40" width="3.40" height="3.40"/>
<rect x="454.00" y="170.40" width="10.20" height="3.40"/>
<rect x="471.00" y="170.40" width="3.40" height="3.40"/>
<rect x="477.80" y="170.40" width="6.80" height="3.40"/>
<rect x="488.00" y="170.40" width="3.40" height="3.40"/>
<rect x="494.80" y="170.40" width="3.40" height="3.40"/>
<rect x="505.00" y="170.40" width="6.80" height="3.40"/>
<rect x="515.20" y="170.40" width="10.20" height="3.40"/>
<rect x="535.60" y="170.40" width="3.40" height="3.40"/>
<rect x="576.40" y="170.40" width="3.40" height="3.40"/>
<rect x="583.20" y="170.40" width="3.40" height="3.40"/>
<rect x="590.00" y="170.40" width="3.40" height="3.40"/>
<rect x="600.20" y="170.40" width="3.40" height="3.40"/>
<rect x="613.80" y="170.40" width="6.80" height="3.40"/>
<rect x="627.40" y="170.40" width="13.60" height="3.40"/>
<rect x="654.60" y="170.40" width="20.40" height="3.40"/>
<rect x="678.40" y="170.40" width="3.40" height="3.40"/>
<rect x="685.20" y="170.40" width="3.40" height="3.40"/>
<rect x="698.80" y="170.40" width="13.60" height="3.40"/>
<rect x="719.20" y="170.40" width="3.40" height="3.40"/>
<rect x="729.40" y="170.40" width="3.40" height="3.40"/>
<rect x="413.20" y="173.80" width="6.80" height="3.40"/>
<rect x="423.40" y="173.80" width="13.60" height="3.40"/>
<rect x="443.80" y="173.80" width="6.80" height="3.40"/>
<rect x="454.00" y="173.80" width="3.40" height="3.40"/>
<rect x="464.20" y="173.80" width="10.20" height="3.40"/>
<rect x="477.80" y="173.80" width="3.40" height="3.40"/>
<rect x="488.00" y="173.80" width="3.40" height="3.40"/>
<rect x="494.80" y="173.80" width="13.60" height="3.40"/>
<rect x="515.20" y="173.80" width="3.40" height="3.40"/>
<rect x="525.40" y="173.80" width="3.40" height="3.40"/>
<rect x="532.20" y="173.80" width="10.20" height="3.40"/>
<rect x="573.00" y="173.80" width="6.80" height="3.40"/>
<rect x="583.20" y="173.80" width="3.40" height="3.40"/>
<rect x="590.00" y="173.80" width="17.00" height="3.40"/>
<rect x="610.40" y="173.80" width="6.80" height="3.40"/>
<rect x="620.60" y="173.80" width="10.20" height="3.40"/>
<rect x="641.00" y="173.80" width="3.40" height="3.40"/>
<rect x="651.20" y="173.80" width="6.80" height="3.40"/>
<rect x="678.40" y="173.80" width="3.40" height="3.40"/>
<rect x="685.20" y="173.80" width="6.80" height="3.40"/>
<rect x="695.40" y="173.80" width="6.80" height="3.40"/>
<rect x="712.40" y="173.80" width="23.80" height="3.40"/>
<rect x="409.80" y="177.20" width="6.80" height="3.40"/>
<rect x="423.40" y="177.20" width="3.40" height="3.40"/>
<rect x="437.00" y="177.20" width="10.20" height="3.40"/>
<rect x="454.00" y="177.20" width="13.60" height="3.40"/>
<rect x="477.80" y="177.20" width="13.60" height="3.40"/>
<rect x="494.80" y="177.20" width="3.40" height="3.40"/>
<rect x="508.40" y="177.20" width="20.40" height="3.40"/>
<rect x="532.20" y="177.20" width="3.40" height="3.40"/>
<rect x="542.40" y="177.20" width="3.40" height="3.40"/>
<rect x="569.60" y="177.20" width="6.80" height="3.40"/>
<rect x="583.20" y="177.20" width="3.40" height="3.40"/>
<rect x="590.00" y="177.20" width="3.40" height="3.40"/>
<rect x="610.40" y="177.20" width="3.40" height="3.40"/>
<rect x="620.60" y="177.20" width="3.40" height="3.40"/>
<rect x="630.80" y="177.20" width="3.40" height="3.40"/>
<rect x="637.60" y="177.20" width="17.00" height="3.40"/>
<rect x="658.00" y="177.20" width="3.40" height="3.40"/>
<rect x="675.00" y="177.20" width="6.80" height="3.40"/>
<rect x="685.20" y="177.20" width="3.40" height="3.40"/>
<rect x="695.40" y="177.20" width="3.40" height="3.40"/>
<rect x="702.20" y="177.20" width="3.40" height="3.40"/>
<rect x="709.00" y="177.20" width="6.80" height="3.40"/>
<rect x="736.20" y="177.20" width="3.40" height="3.40"/>
<rect x="406.40" y="180.60" width="6.80" height="3.40"/>
<rect x="416.60" y="180.60" width="13.60" height="3.40"/>
<rect x="433.60" y="180.60" width="6.80" height="3.40"/>
<rect x="447.20" y="180.60" width="10.20" height="3.40"/>
<rect x="467.60" y="180.60" width="3.40" height="3.40"/>
<rect x="474.40" y="180.60" width="6.80" height="3.40"/>
<rect x="494.80" y="180.60" width="6.80" height="3.40"/>
<rect x="505.00" y="180.60" width="6.80" height="3.40"/>
<rect x="532.20" y="180.60" width="17.00" height="3.40"/>
<rect x="566.20" y="180.60" width="6.80" height="3.40"/>
<rect x="576.40" y="180.60" width="10.20" height="3.40"/>
<rect x="590.00" y="180.60" width="6.80" height="3.40"/>
<rect x="607.00" y="180.60" width="27.20" height="3.40"/>
<rect x="637.60" y="180.60" width="3.40" height="3.40"/>
<rect x="658.00" y="180.60" width="6.80" height="3.40"/>
<rect x="671.60" y="180.60" width="6.80" height="3.40"/>
<rect x="685.20" y="180.60" width="13.60" height="3.40"/>
<rect x="702.20" y="180.60" width="3.40" height="3.40"/>
<rect x="709.00" y="180.60" width="3.40" height="3.40"/>
<rect x="715.80" y="180.60" width="3.40" height="3.40"/>
<rect x="732.80" y="180.60" width="10.20" height="3.40"/>
<rect x="403.00" y="184.00" width="6.80" height="3.40"/>
<rect x="416.60" y="184.00" width="3.40" height="3.40"/>
<rect x="433.60" y="184.00" width="3.40" height="3.40"/>
<rect x="440.40" y="184.00" width="10.20" height="3.40"/>
<rect x="457.40" y="184.00" width="3.40" height="3.40"/>
<rect x="464.20" y="184.00" width="6.80" height="3.40"/>
<rect x="474.40" y="184.00" width="3.40" height="3.40"/>
<rect x="481.20" y="184.00" width="3.40" height="3.40"/>
<rect x="491.40" y="184.00" width="6.80" height="3.40"/>
<rect x="505.00" y="184.00" width="3.40" height="3.40"/>
<rect x="511.80" y="184.00" width="3.40" height="3.40"/>
<rect x="528.80" y="184.00" width="6.80" height="3.40"/>
<rect x="549.20" y="184.00" width="3.40" height="3.40"/>
<rect x="562.80" y="184.00" width="6.80" height="3.40"/>
<rect x="576.40" y="184.00" width="3.40" height="3.40"/>
<rect x="590.00" y="184.00" width="3.40" height="3.40"/>
<rect x="596.80" y="184.00" width="3.40" height="3.40"/>
<rect x="603.60" y="184.00" width="6.80" height="3.40"/>
<rect x="637.60" y="184.00" width="6.80" height="3.40"/>
<rect x="654.60" y="184.00" width="6.80" height="3.40"/>
<rect x="664.80" y="184.00" width="10.20" height="3.40"/>
<rect x="678.40" y="184.00" width="10.20" height="3.40"/>
<rect x="702.20" y="184.00" width="3.40" height="3.40"/>
<rect x="709.00" y="184.00" width="3.40" height="3.40"/>
<rect x="715.80" y="184.00" width="6.80" height="3.40"/>
<rect x="729.40" y="184.00" width="6.80" height="3.40"/>
<rect x="743.00" y="184.00" width="3.40" height="3.40"/>
<rect x="399.60" y="187.40" width="6.80" height="3.40"/>
<rect x="409.80" y="187.40" width="13.60" height="3.40"/>
<rect x="430.20" y="187.40" width="6.80" height="3.40"/>
<rect x="440.40" y="187.40" width="3.40" height="3.40"/>
<rect x="450.60" y="187.40" width="10.20" height="3.40"/>
<rect x="464.20" y="187.40" width="3.40" height="3.40"/>
<rect x="474.40" y="187.40" width="3.40" height="3.40"/>
<rect x="481.20" y="187.40" width="13.60" height="3.40"/>
<rect x="498.20" y="187.40" width="10.20" height="3.40"/>
<rect x="511.80" y="187.40" width="6.80" height="3.40"/>
<rect x="525.40" y="187.40" width="6.80" height="3.40"/>
<rect x="535.60" y="187.40" width="3.40" height="3.40"/>
<rect x="545.80" y="187.40" width="10.20" height="3.40"/>
<rect x="559.40" y="187.40" width="6.80" height="3.40"/>
<rect x="569.60" y="187.40" width="13.60" height="3.40"/>
<rect x="586.60" y="187.40" width="6.80" height="3.40"/>
<rect x="596.80" y="187.40" width="3.40" height="3.40"/>
<rect x="603.60" y="187.40" width="3.40" height="3.40"/>
<rect x="610.40" y="187.40" width="3.40" height="3.40"/>
<rect x="634.20" y="187.40" width="6.80" height="3.40"/>
<rect x="644.40" y="187.40" width="3.40" height="3.40"/>
<rect x="651.20" y="187.40" width="6.80" height="3.40"/>
<rect x="664.80" y="187.40" width="3.40" height="3.40"/>
<rect x="678.40" y="187.40" width="3.40" height="3.40"/>
<rect x="688.60" y="187.40" width="3.40" height="3.40"/>
<rect x="698.80" y="187.40" width="6.80" height="3.40"/>
<rect x="709.00" y="187.40" width="3.40" height="3.40"/>
<rect x="715.80" y="187.40" width="3.40" height="3.40"/>
<rect x="722.60" y="187.40" width="10.20" height="3.40"/>
<rect x="736.20" y="187.40" width="13.60" height="3.40"/>
<rect x="396.20" y="190.80" width="6.80" height="3.40"/>
<rect x="409.80" y="190.80" width="3.40" height="3.40"/>
<rect x="423.40" y="190.80" width="10.20" height="3.40"/>
<rect x="440.40" y="190.80" width="13.60" height="3.40"/>
<rect x="464.20" y="190.80" width="13.60" height="3.40"/>
<rect x="481.20" y="190.80" width="3.40" height="3.40"/>
<rect x="498.20" y="190.80" width="3.40" height="3.40"/>
<rect x="511.80" y="190.80" width="3.40" height="3.40"/>
<rect x="518.60" y="190.80" width="10.20" height="3.40"/>
<rect x="535.60" y="190.80" width="13.60" height="3.40"/>
<rect x="559.40" y="190.80" width="3.40" height="3.40"/>
<rect x="569.60" y="190.80" width="3.40" height="3.40"/>
<rect x="586.60" y="190.80" width="3.40" height="3.40"/>
<rect x="596.80" y="190.80" width="3.40" height="3.40"/>
<rect x="603.60" y="190.80" width="3.40" height="3.40"/>
<rect x="610.40" y="190.80" width="6.80" height="3.40"/>
<rect x="630.80" y="190.80" width="6.80" height="3.40"/>
<rect x="644.40" y="190.80" width="3.40" height="3.40"/>
<rect x="651.20" y="190.80" width="3.40" height="3.40"/>
<rect x="658.00" y="190.80" width="13.60" height="3.40"/>
<rect x="675.00" y="190.80" width="27.20" height="3.40"/>
<rect x="709.00" y="190.80" width="3.40" height="3.40"/>
<rect x="715.80" y="190.80" width="3.40" height="3.40"/>
<rect x="722.60" y="190.80" width="3.40" height="3.40"/>
<rect x="736.20" y="190.80" width="3.40" height="3.40"/>
<rect x="749.80" y="190.80" width="3.40" height="3.40"/>
<rect x="392.80" y="194.20" width="6.80" height="3.40"/>
<rect x="403.00" y="194.20" width="13.60" height="3.40"/>
<rect x="420.00" y="194.20" width="6.80" height="3.40"/>
<rect x="433.60" y="194.20" width="10.20" height="3.40"/>
<rect x="454.00" y="194.20" width="3.40" height="3.40"/>
<rect x="460.80" y="194.20" width="6.80" height="3.40"/>
<rect x="481.20" y="194.20" width="6.80" height="3.40"/>
<rect x="494.80" y="194.20" width="10.20" height="3.40"/>
<rect x="508.40" y="194.20" width="6.80" height="3.40"/>
<rect x="518.60" y="194.20" width="3.40" height="3.40"/>
<rect x="528.80" y="194.20" width="10.20" height="3.40"/>
<rect x="549.20" y="194.20" width="3.40" height="3.40"/>
<rect x="556.00" y="194.20" width="20.40" height="3.40"/>
<rect x="583.20" y="194.20" width="17.00" height="3.40"/>
<rect x="603.60" y="194.20" width="3.40" height="3.40"/>
<rect x="610.40" y="194.20" width="3.40" height="3.40"/>
<rect x="617.20" y="194.20" width="3.40" height="3.40"/>
<rect x="627.40" y="194.20" width="6.80" height="3.40"/>
<rect x="637.60" y="194.20" width="10.20" height="3.40"/>
<rect x="651.20" y="194.20" width="3.40" height="3.40"/>
<rect x="658.00" y="194.20" width="3.40" height="3.40"/>
<rect x="675.00" y="194.20" width="3.40" height="3.40"/>
<rect x="702.20" y="194.20" width="10.20" height="3.40"/>
<rect x="715.80" y="194.20" width="3.40" height="3.40"/>
<rect x="722.60" y="194.20" width="6.80" height="3.40"/>
<rect x="732.80" y="194.20" width="10.20" height="3.40"/>
<rect x="746.40" y="194.20" width="10.20" height="3.40"/>
<rect x="389.40" y="197.60" width="6.80" height="3.40"/>
<rect x="403.00" y="197.60" width="3.40" height="3.40"/>
<rect x="420.00" y="197.60" width="3.40" height="3.40"/>
<rect x="426.80" y="197.60" width="10.20" height="3.40"/>
<rect x="443.80" y="197.60" width="3.40" height="3.40"/>
<rect x="450.60" y="197.60" width="6.80" height="3.40"/>
<rect x="460.80" y="197.60" width="3.40" height="3.40"/>
<rect x="467.60" y="197.60" width="3.40" height="3.40"/>
<rect x="477.80" y="197.60" width="6.80" height="3.40"/>
<rect x="488.00" y="197.60" width="10.20" height="3.40"/>
<rect x="508.40" y="197.60" width="3.40" height="3.40"/>
<rect x="518.60" y="197.60" width="13.60" height="3.40"/>
<rect x="539.00" y="197.60" width="3.40" height="3.40"/>
<rect x="545.80" y="197.60" width="6.80" height="3.40"/>
<rect x="556.00" y="197.60" width="3.40" height="3.40"/>
<rect x="576.40" y="197.60" width="10.20" height="3.40"/>
<rect x="603.60" y="197.60" width="3.40" height="3.40"/>
<rect x="610.40" y="197.60" width="3.40" height="3.40"/>
<rect x="617.20" y="197.60" width="13.60" height="3.40"/>
<rect x="637.60" y="197.60" width="3.40" height="3.40"/>
<rect x="651.20" y="197.60" width="3.40" height="3.40"/>
<rect x="658.00" y="197.60" width="6.80" height="3.40"/>
<rect x="671.60" y="197.60" width="10.20" height="3.40"/>
<rect x="698.80" y="197.60" width="6.80" height="3.40"/>
<rect x="715.80" y="197.60" width="3.40" height="3.40"/>
<rect x="722.60" y="197.60" width="3.40" height="3.40"/>
<rect x="732.80" y="197.60" width="3.40" height="3.40"/>
<rect x="746.40" y="197.60" width="3.40" height="3.40"/>
<rect x="756.60" y="197.60" width="3.40" height="3.40"/>
<rect x="386.00" y="201.00" width="6.80" height="3.40"/>
<rect x="396.20" y="201.00" width="13.60" height="3.40"/>
<rect x="416.60" y="201.00" width="6.80" height="3.40"/>
<rect x="426.80" y="201.00" width="3.40" height="3.40"/>
<rect x="437.00" y="201.00" width="10.20" height="3.40"/>
<rect x="450.60" y="201.00" width="3.40" height="3.40"/>
<rect x="460.80" y="201.00" width="3.40" height="3.40"/>
<rect x="467.60" y="201.00" width="13.60" height="3.40"/>
<rect x="488.00" y="201.00" width="3.40" height="3.40"/>
<rect x="498.20" y="201.00" width="3.40" height="3.40"/>
<rect x="505.00" y="201.00" width="17.00" height="3.40"/>
<rect x="532.20" y="201.00" width="10.20" height="3.40"/>
<rect x="545.80" y="201.00" width="3.40" height="3.40"/>
<rect x="556.00" y="201.00" width="6.80" height="3.40"/>
<rect x="573.00" y="201.00" width="6.80" height="3.40"/>
<rect x="586.60" y="201.00" width="3.40" height="3.40"/>
<rect x="600.20" y="201.00" width="6.80" height="3.40"/>
<rect x="610.40" y="201.00" width="3.40" height="3.40"/>
<rect x="617.20" y="201.00" width="3.40" height="3.40"/>
<rect x="630.80" y="201.00" width="13.60" height="3.40"/>
<rect x="647.80" y="201.00" width="6.80" height="3.40"/>
<rect x="658.00" y="201.00" width="3.40" height="3.40"/>
<rect x="664.80" y="201.00" width="10.20" height="3.40"/>
<rect x="681.80" y="201.00" width="3.40" height="3.40"/>
<rect x="695.40" y="201.00" width="6.80" height="3.40"/>
<rect x="705.60" y="201.00" width="3.40" height="3.40"/>
<rect x="712.40" y="201.00" width="6.80" height="3.40"/>
<rect x="722.60" y="201.00" width="17.00" height="3.40"/>
<rect x="743.00" y="201.00" width="20.40" height="3.40"/>
<rect x="382.60" y="204.40" width="6.80" height="3.40"/>
<rect x="396.20" y="204.40" width="3.40" height="3.40"/>
<rect x="409.80" y="204.40" width="10.20" height="3.40"/>
<rect x="426.80" y="204.40" width="13.60" height="3.40"/>
<rect x="450.60" y="204.40" width="13.60" height="3.40"/>
<rect x="467.60" y="204.40" width="3.40" height="3.40"/>
<rect x="481.20" y="204.40" width="20.40" height="3.40"/>
<rect x="505.00" y="204.40" width="3.40" height="3.40"/>
<rect x="522.00" y="204.40" width="3.40" height="3.40"/>
<rect x="528.80" y="204.40" width="6.80" height="3.40"/>
<rect x="545.80" y="204.40" width="13.60" height="3.40"/>
<rect x="562.80" y="204.40" width="3.40" height="3.40"/>
<rect x="569.60" y="204.40" width="6.80" height="3.40"/>
<rect x="579.80" y="204.40" width="13.60" height="3.40"/>
<rect x="596.80" y="204.40" width="6.80" height="3.40"/>
<rect x="610.40" y="204.40" width="3.40" height="3.40"/>
<rect x="617.20" y="204.40" width="6.80" height="3.40"/>
<rect x="627.40" y="204.40" width="6.80" height="3.40"/>
<rect x="647.80" y="204.40" width="3.40" height="3.40"/>
<rect x="658.00" y="204.40" width="3.40" height="3.40"/>
<rect x="664.80" y="204.40" width="3.40" height="3.40"/>
<rect x="675.00" y="204.40" width="13.60" height="3.40"/>
<rect x="692.00" y="204.40" width="6.80" height="3.40"/>
<rect x="705.60" y="204.40" width="3.40" height="3.40"/>
<rect x="712.40" y="204.40" width="3.40" height="3.40"/>
<rect x="722.60" y="204.40" width="3.40" height="3.40"/>
<rect x="743.00" y="204.40" width="3.40" height="3.40"/>
<rect x="763.40" y="204.40" width="3.40" height="3.40"/>
<rect x="379.20" y="207.80" width="6.80" height="3.40"/>
<rect x="389.40" y="207.80" width="13.60" height="3.40"/>
<rect x="406.40" y="207.80" width="6.80" height="3.40"/>
<rect x="420.00" y="207.80" width="10.20" height="3.40"/>
<rect x="440.40" y="207.80" width="3.40" height="3.40"/>
<rect x="447.20" y="207.80" width="6.80" height="3.40"/>
<rect x="467.60" y="207.80" width="6.80" height="3.40"/>
<rect x="477.80" y="207.80" width="6.80" height="3.40"/>
<rect x="505.00" y="207.80" width="6.80" height="3.40"/>
<rect x="518.60" y="207.80" width="6.80" height="3.40"/>
<rect x="528.80" y="207.80" width="3.40" height="3.40"/>
<rect x="535.60" y="207.80" width="3.40" height="3.40"/>
<rect x="542.40" y="207.80" width="6.80" height="3.40"/>
<rect x="562.80" y="207.80" width="3.40" height="3.40"/>
<rect x="569.60" y="207.80" width="3.40" height="3.40"/>
<rect x="579.80" y="207.80" width="3.40" height="3.40"/>
<rect x="596.80" y="207.80" width="3.40" height="3.40"/>
<rect x="603.60" y="207.80" width="10.20" height="3.40"/>
<rect x="617.20" y="207.80" width="3.40" height="3.40"/>
<rect x="627.40" y="207.80" width="3.40" height="3.40"/>
<rect x="634.20" y="207.80" width="3.40" height="3.40"/>
<rect x="644.40" y="207.80" width="17.00" height="3.40"/>
<rect x="664.80" y="207.80" width="13.60" height="3.40"/>
<rect x="692.00" y="207.80" width="3.40" height="3.40"/>
<rect x="698.80" y="207.80" width="10.20" height="3.40"/>
<rect x="712.40" y="207.80" width="17.00" height="3.40"/>
<rect x="739.60" y="207.80" width="10.20" height="3.40"/>
<rect x="760.00" y="207.80" width="10.20" height="3.40"/>
<rect x="375.80" y="211.20" width="6.80" height="3.40"/>
<rect x="389.40" y="211.20" width="3.40" height="3.40"/>
<rect x="406.40" y="211.20" width="3.40" height="3.40"/>
<rect x="413.20" y="211.20" width="10.20" height="3.40"/>
<rect x="430.20" y="211.20" width="3.40" height="3.40"/>
<rect x="437.00" y="211.20" width="6.80" height="3.40"/>
<rect x="447.20" y="211.20" width="3.40" height="3.40"/>
<rect x="454.00" y="211.20" width="3.40" height="3.40"/>
<rect x="464.20" y="211.20" width="6.80" height="3.40"/>
<rect x="477.80" y="211.20" width="3.40" height="3.40"/>
<rect x="484.60" y="211.20" width="3.40" height="3.40"/>
<rect x="501.60" y="211.20" width="6.80" height="3.40"/>
<rect x="511.80" y="211.20" width="10.20" height="3.40"/>
<rect x="528.80" y="211.20" width="3.40" height="3.40"/>
<rect x="535.60" y="211.20" width="3.40" height="3.40"/>
<rect x="542.40" y="211.20" width="3.40" height="3.40"/>
<rect x="549.20" y="211.20" width="3.40" height="3.40"/>
<rect x="559.40" y="211.20" width="6.80" height="3.40"/>
<rect x="569.60" y="211.20" width="17.00" height="3.40"/>
<rect x="593.40" y="211.20" width="6.80" height="3.40"/>
<rect x="603.60" y="211.20" width="3.40" height="3.40"/>
<rect x="617.20" y="211.20" width="13.60" height="3.40"/>
<rect x="634.20" y="211.20" width="13.60" height="3.40"/>
<rect x="664.80" y="211.20" width="3.40" height="3.40"/>
<rect x="678.40" y="211.20" width="3.40" height="3.40"/>
<rect x="688.60" y="211.20" width="6.80" height="3.40"/>
<rect x="698.80" y="211.20" width="3.40" height="3.40"/>
<rect x="712.40" y="211.20" width="3.40" height="3.40"/>
<rect x="729.40" y="211.20" width="3.40" height="3.40"/>
<rect x="736.20" y="211.20" width="6.80" height="3.40"/>
<rect x="749.80" y="211.20" width="3.40" height="3.40"/>
<rect x="756.60" y="211.20" width="6.80" height="3.40"/>
<rect x="770.20" y="211.20" width="3.40" height="3.40"/>
<rect x="372.40" y="214.60" width="6.80" height="3.40"/>
<rect x="382.60" y="214.60" width="13.60" height="3.40"/>
<rect x="403.00" y="214.60" width="6.80" height="3.40"/>
<rect x="413.20" y="214.60" width="3.40" height="3.40"/>
<rect x="423.40" y="214.60" width="10.20" height="3.40"/>
<rect x="437.00" y="214.60" width="3.40" height="3.40"/>
<rect x="447.20" y="214.60" width="3.40" height="3.40"/>
<rect x="454.00" y="214.60" width="13.60" height="3.40"/>
<rect x="471.00" y="214.60" width="10.20" height="3.40"/>
<rect x="484.60" y="214.60" width="6.80" height="3.40"/>
<rect x="498.20" y="214.60" width="6.80" height="3.40"/>
<rect x="511.80" y="214.60" width="3.40" height="3.40"/>
<rect x="522.00" y="214.60" width="10.20" height="3.40"/>
<rect x="535.60" y="214.60" width="3.40" height="3.40"/>
<rect x="542.40" y="214.60" width="3.40" height="3.40"/>
<rect x="549.20" y="214.60" width="13.60" height="3.40"/>
<rect x="569.60" y="214.60" width="3.40" height="3.40"/>
<rect x="586.60" y="214.60" width="10.20" height="3.40"/>
<rect x="603.60" y="214.60" width="6.80" height="3.40"/>
<rect x="613.80" y="214.60" width="6.80" height="3.40"/>
<rect x="634.20" y="214.60" width="3.40" height="3.40"/>
<rect x="647.80" y="214.60" width="3.40" height="3.40"/>
<rect x="661.40" y="214.60" width="10.20" height="3.40"/>
<rect x="675.00" y="214.60" width="17.00" height="3.40"/>
<rect x="698.80" y="214.60" width="6.80" height="3.40"/>
<rect x="709.00" y="214.60" width="10.20" height="3.40"/>
<rect x="726.00" y="214.60" width="6.80" height="3.40"/>
<rect x="736.20" y="214.60" width="3.40" height="3.40"/>
<rect x="743.00" y="214.60" width="10.20" height="3.40"/>
<rect x="756.60" y="214.60" width="3.40" height="3.40"/>
<rect x="763.40" y="214.60" width="13.60" height="3.40"/>
<rect x="369.00" y="218.00" width="6.80" height="3.40"/>
<rect x="382.60" y="218.00" width="3.40" height="3.40"/>
<rect x="396.20" y="218.00" width="10.20" height="3.40"/>
<rect x="413.20" y="218.00" width="13.60" height="3.40"/>
<rect x="437.00" y="218.00" width="13.60" height="3.40"/>
<rect x="454.00" y="218.00" width="3.40" height="3.40"/>
<rect x="471.00" y="218.00" width="3.40" height="3.40"/>
<rect x="484.60" y="218.00" width="3.40" height="3.40"/>
<rect x="491.40" y="218.00" width="10.20" height="3.40"/>
<rect x="505.00" y="218.00" width="20.40" height="3.40"/>
<rect x="535.60" y="218.00" width="3.40" height="3.40"/>
<rect x="542.40" y="218.00" width="3.40" height="3.40"/>
<rect x="549.20" y="218.00" width="3.40" height="3.40"/>
<rect x="562.80" y="218.00" width="13.60" height="3.40"/>
<rect x="583.20" y="218.00" width="6.80" height="3.40"/>
<rect x="596.80" y="218.00" width="10.20" height="3.40"/>
<rect x="613.80" y="218.00" width="3.40" height="3.40"/>
<rect x="620.60" y="218.00" width="3.40" height="3.40"/>
<rect x="630.80" y="218.00" width="10.20" height="3.40"/>
<rect x="644.40" y="218.00" width="10.20" height="3.40"/>
<rect x="658.00" y="218.00" width="6.80" height="3.40"/>
<rect x="675.00" y="218.00" width="3.40" height="3.40"/>
<rect x="692.00" y="218.00" width="10.20" height="3.40"/>
<rect x="709.00" y="218.00" width="3.40" height="3.40"/>
<rect x="719.20" y="218.00" width="10.20" height="3.40"/>
<rect x="736.20" y="218.00" width="3.40" height="3.40"/>
<rect x="743.00" y="218.00" width="3.40" height="3.40"/>
<rect x="756.60" y="218.00" width="3.40" height="3.40"/>
<rect x="763.40" y="218.00" width="3.40" height="3.40"/>
<rect x="777.00" y="218.00" width="3.40" height="3.40"/>
<rect x="365.60" y="221.40" width="6.80" height="3.40"/>
<rect x="375.80" y="221.40" width="13.60" height="3.40"/>
<rect x="392.80" y="221.40" width="6.80" height="3.40"/>
<rect x="406.40" y="221.40" width="10.20" height="3.40"/>
<rect x="426.80" y="221.40" width="3.40" height="3.40"/>
<rect x="433.60" y="221.40" width="6.80" height="3.40"/>
<rect x="454.00" y="221.40" width="6.80" height="3.40"/>
<rect x="467.60" y="221.40" width="10.20" height="3.40"/>
<rect x="481.20" y="221.40" width="6.80" height="3.40"/>
<rect x="491.40" y="221.40" width="3.40" height="3.40"/>
<rect x="505.00" y="221.40" width="3.40" height="3.40"/>
<rect x="525.40" y="221.40" width="3.40" height="3.40"/>
<rect x="532.20" y="221.40" width="6.80" height="3.40"/>
<rect x="542.40" y="221.40" width="3.40" height="3.40"/>
<rect x="549.20" y="221.40" width="6.80" height="3.40"/>
<rect x="559.40" y="221.40" width="6.80" height="3.40"/>
<rect x="576.40" y="221.40" width="10.20" height="3.40"/>
<rect x="590.00" y="221.40" width="10.20" height="3.40"/>
<rect x="607.00" y="221.40" width="10.20" height="3.40"/>
<rect x="620.60" y="221.40" width="13.60" height="3.40"/>
<rect x="644.40" y="221.40" width="3.40" height="3.40"/>
<rect x="658.00" y="221.40" width="3.40" height="3.40"/>
<rect x="664.80" y="221.40" width="3.40" height="3.40"/>
<rect x="671.60" y="221.40" width="10.20" height="3.40"/>
<rect x="688.60" y="221.40" width="6.80" height="3.40"/>
<rect x="702.20" y="221.40" width="20.40" height="3.40"/>
<rect x="729.40" y="221.40" width="10.20" height="3.40"/>
<rect x="743.00" y="221.40" width="6.80" height="3.40"/>
<rect x="753.20" y="221.40" width="6.80" height="3.40"/>
<rect x="763.40" y="221.40" width="6.80" height="3.40"/>
<rect x="773.60" y="221.40" width="10.20" height="3.40"/>
<rect x="362.20" y="224.80" width="6.80" height="3.40"/>
<rect x="375.80" y="224.80" width="3.40" height="3.40"/>
<rect x="392.80" y="224.80" width="3.40" height="3.40"/>
<rect x="399.60" y="224.80" width="10.20" height="3.40"/>
<rect x="416.60" y="224.80" width="3.40" height="3.40"/>
<rect x="423.40" y="224.80" width="6.80" height="3.40"/>
<rect x="433.60" y="224.80" width="3.40" height="3.40"/>
<rect x="440.40" y="224.80" width="3.40" height="3.40"/>
<rect x="450.60" y="224.80" width="6.80" height="3.40"/>
<rect x="460.80" y="224.80" width="10.20" height="3.40"/>
<rect x="481.20" y="224.80" width="3.40" height="3.40"/>
<rect x="491.40" y="224.80" width="6.80" height="3.40"/>
<rect x="501.60" y="224.80" width="10.20" height="3.40"/>
<rect x="522.00" y="224.80" width="6.80" height="3.40"/>
<rect x="532.20" y="224.80" width="3.40" height="3.40"/>
<rect x="542.40" y="224.80" width="3.40" height="3.40"/>
<rect x="549.20" y="224.80" width="3.40" height="3.40"/>
<rect x="559.40" y="224.80" width="3.40" height="3.40"/>
<rect x="566.20" y="224.80" width="3.40" height="3.40"/>
<rect x="573.00" y="224.80" width="6.80" height="3.40"/>
<rect x="590.00" y="224.80" width="3.40" height="3.40"/>
<rect x="600.20" y="224.80" width="10.20" height="3.40"/>
<rect x="620.60" y="224.80" width="3.40" height="3.40"/>
<rect x="634.20" y="224.80" width="3.40" height="3.40"/>
<rect x="641.00" y="224.80" width="10.20" height="3.40"/>
<rect x="654.60" y="224.80" width="6.80" height="3.40"/>
<rect x="664.80" y="224.80" width="3.40" height="3.40"/>
<rect x="671.60" y="224.80" width="3.40" height="3.40"/>
<rect x="681.80" y="224.80" width="10.20" height="3.40"/>
<rect x="695.40" y="224.80" width="10.20" height="3.40"/>
<rect x="722.60" y="224.80" width="10.20" height="3.40"/>
<rect x="743.00" y="224.80" width="3.40" height="3.40"/>
<rect x="753.20" y="224.80" width="3.40" height="3.40"/>
<rect x="763.40" y="224.80" width="3.40" height="3.40"/>
<rect x="773.60" y="224.80" width="3.40" height="3.40"/>
<rect x="783.80" y="224.80" width="3.40" height="3.40"/>
<rect x="358.80" y="228.20" width="6.80" height="3.40"/>
<rect x="369.00" y="228.20" width="13.60" height="3.40"/>
<rect x="389.40" y="228.20" width="6.80" height="3.40"/>
<rect x="399.60" y="228.20" width="3.40" height="3.40"/>
<rect x="409.80" y="228.20" width="10.20" height="3.40"/>
<rect x="423.40" y="228.20" width="3.40" height="3.40"/>
<rect x="433.60" y="228.20" width="3.40" height="3.40"/>
<rect x="440.40" y="228.20" width="13.60" height="3.40"/>
<rect x="460.80" y="228.20" width="3.40" height="3.40"/>
<rect x="471.00" y="228.20" width="3.40" height="3.40"/>
<rect x="477.80" y="228.20" width="17.00" height="3.40"/>
<rect x="501.60" y="228.20" width="3.40" height="3.40"/>
<rect x="511.80" y="228.20" width="3.40" height="3.40"/>
<rect x="518.60" y="228.20" width="6.80" height="3.40"/>
<rect x="532.20" y="228.20" width="13.60" height="3.40"/>
<rect x="549.20" y="228.20" width="13.60" height="3.40"/>
<rect x="566.20" y="228.20" width="3.40" height="3.40"/>
<rect x="573.00" y="228.20" width="3.40" height="3.40"/>
<rect x="579.80" y="228.20" width="3.40" height="3.40"/>
<rect x="586.60" y="228.20" width="17.00" height="3.40"/>
<rect x="610.40" y="228.20" width="3.40" height="3.40"/>
<rect x="617.20" y="228.20" width="10.20" height="3.40"/>
<rect x="630.80" y="228.20" width="6.80" height="3.40"/>
<rect x="641.00" y="228.20" width="3.40" height="3.40"/>
<rect x="654.60" y="228.20" width="3.40" height="3.40"/>
<rect x="664.80" y="228.20" width="3.40" height="3.40"/>
<rect x="671.60" y="228.20" width="13.60" height="3.40"/>
<rect x="695.40" y="228.20" width="3.40" height="3.40"/>
<rect x="705.60" y="228.20" width="3.40" height="3.40"/>
<rect x="719.20" y="228.20" width="6.80" height="3.40"/>
<rect x="732.80" y="228.20" width="3.40" height="3.40"/>
<rect x="739.60" y="228.20" width="51.00" height="3.40"/>
<rect x="355.40" y="231.60" width="6.80" height="3.40"/>
<rect x="369.00" y="231.60" width="3.40" height="3.40"/>
<rect x="382.60" y="231.60" width="10.20" height="3.40"/>
<rect x="399.60" y="231.60" width="13.60" height="3.40"/>
<rect x="423.40" y="231.60" width="13.60" height="3.40"/>
<rect x="440.40" y="231.60" width="3.40" height="3.40"/>
<rect x="454.00" y="231.60" width="20.40" height="3.40"/>
<rect x="477.80" y="231.60" width="3.40" height="3.40"/>
<rect x="494.80" y="231.60" width="20.40" height="3.40"/>
<rect x="518.60" y="231.60" width="3.40" height="3.40"/>
<rect x="525.40" y="231.60" width="10.20" height="3.40"/>
<rect x="549.20" y="231.60" width="3.40" height="3.40"/>
<rect x="566.20" y="231.60" width="3.40" height="3.40"/>
<rect x="573.00" y="231.60" width="3.40" height="3.40"/>
<rect x="579.80" y="231.60" width="3.40" height="3.40"/>
<rect x="586.60" y="231.60" width="3.40" height="3.40"/>
<rect x="603.60" y="231.60" width="10.20" height="3.40"/>
<rect x="617.20" y="231.60" width="3.40" height="3.40"/>
<rect x="630.80" y="231.60" width="3.40" height="3.40"/>
<rect x="641.00" y="231.60" width="6.80" height="3.40"/>
<rect x="651.20" y="231.60" width="17.00" height="3.40"/>
<rect x="671.60" y="231.60" width="3.40" height="3.40"/>
<rect x="685.20" y="231.60" width="3.40" height="3.40"/>
<rect x="692.00" y="231.60" width="20.40" height="3.40"/>
<rect x="715.80" y="231.60" width="6.80" height="3.40"/>
<rect x="726.00" y="231.60" width="10.20" height="3.40"/>
<rect x="739.60" y="231.60" width="3.40" height="3.40"/>
<rect x="790.60" y="231.60" width="3.40" height="3.40"/>
<rect x="352.00" y="235.00" width="6.80" height="3.40"/>
<rect x="362.20" y="235.00" width="13.60" height="3.40"/>
<rect x="379.20" y="235.00" width="6.80" height="3.40"/>
<rect x="392.80" y="235.00" width="10.20" height="3.40"/>
<rect x="413.20" y="235.00" width="3.40" height="3.40"/>
<rect x="420.00" y="235.00" width="6.80" height="3.40"/>
<rect x="440.40" y="235.00" width="6.80" height="3.40"/>
<rect x="450.60" y="235.00" width="6.80" height="3.40"/>
<rect x="477.80" y="235.00" width="6.80" height="3.40"/>
<rect x="491.40" y="235.00" width="6.80" height="3.40"/>
<rect x="518.60" y="235.00" width="3.40" height="3.40"/>
<rect x="525.40" y="235.00" width="3.40" height="3.40"/>
<rect x="535.60" y="235.00" width="3.40" height="3.40"/>
<rect x="545.80" y="235.00" width="10.20" height="3.40"/>
<rect x="562.80" y="235.00" width="6.80" height="3.40"/>
<rect x="573.00" y="235.00" width="3.40" height="3.40"/>
<rect x="579.80" y="235.00" width="3.40" height="3.40"/>
<rect x="586.60" y="235.00" width="6.80" height="3.40"/>
<rect x="600.20" y="235.00" width="6.80" height="3.40"/>
<rect x="617.20" y="235.00" width="6.80" height="3.40"/>
<rect x="627.40" y="235.00" width="17.00" height="3.40"/>
<rect x="651.20" y="235.00" width="3.40" height="3.40"/>
<rect x="671.60" y="235.00" width="6.80" height="3.40"/>
<rect x="681.80" y="235.00" width="6.80" height="3.40"/>
<rect x="692.00" y="235.00" width="3.40" height="3.40"/>
<rect x="715.80" y="235.00" width="3.40" height="3.40"/>
<rect x="726.00" y="235.00" width="3.40" height="3.40"/>
<rect x="739.60" y="235.00" width="6.80" height="3.40"/>
<rect x="787.20" y="235.00" width="10.20" height="3.40"/>
</svg>